<svg id="Capa_1" enable-background="new 0 0 512 512" height="512" viewBox="0 0 512 512" width="512" xmlns="http://www.w3.org/2000/svg"><g><g><path d="m453.31 460.125c0 24.508-19.907 44.375-44.464 44.375h-305.692c-24.557 0-44.464-19.867-44.464-44.375v-408.25c0-24.508 19.907-44.375 44.464-44.375h190.303c8.857 0 17.35 3.516 23.606 9.773l126.505 126.521c6.239 6.239 9.742 14.694 9.742 23.508z" fill="#f9f8f9"/><path d="m133.15 504.5h-30c-24.55 0-44.46-19.87-44.46-44.38v-408.24c0-24.51 19.91-44.38 44.46-44.38h30c-24.55 0-44.46 19.87-44.46 44.38v408.24c0 24.51 19.91 44.38 44.46 44.38z" fill="#e3e0e4"/><path d="m453.31 167.3v16.24h-115.96c-33.12 0-60.06-26.95-60.06-60.07v-115.97h16.17c8.85 0 17.35 3.52 23.6 9.77l126.51 126.52c6.24 6.24 9.74 14.7 9.74 23.51z" fill="#e3e0e4"/><path d="m450.32 153.54h-112.97c-16.6 0-30.06-13.46-30.06-30.07v-112.96c3.61 1.63 6.92 3.91 9.77 6.76l126.51 126.52c2.85 2.85 5.12 6.15 6.75 9.75z" fill="#b9a1d3"/><path d="m435 438.5h-358c-22.091 0-40-17.909-40-40v-146c0-22.091 17.909-40 40-40h358c22.091 0 40 17.909 40 40v146c0 22.091-17.909 40-40 40z" fill="#b9a1d3"/><path d="m102 438.5h-25c-22.09 0-40-17.91-40-40v-146c0-22.09 17.91-40 40-40h25c-22.09 0-40 17.91-40 40v146c0 22.09 17.91 40 40 40z" fill="#9573bb"/></g><g><path d="m460.81 212.655v-45.354c0-10.88-4.24-21.111-11.938-28.811l-64.426-64.435c-2.929-2.93-7.677-2.929-10.606-.001-2.929 2.929-2.93 7.678-.001 10.606l61.367 61.375h-97.853c-12.439 0-22.56-10.123-22.56-22.566v-97.86l34.3 34.303c2.93 2.93 7.678 2.929 10.607.001 2.929-2.929 2.929-7.678 0-10.606l-37.332-37.336c-7.72-7.72-17.987-11.971-28.911-11.971h-190.303c-28.653 0-51.964 23.271-51.964 51.875v160.78c-13.041 8.477-21.69 23.166-21.69 39.845v11.989c0 4.143 3.358 7.5 7.5 7.5s7.5-3.357 7.5-7.5v-11.989c0-17.921 14.58-32.5 32.5-32.5h287.686c4.142 0 7.5-3.357 7.5-7.5s-3.358-7.5-7.5-7.5h-287.686c-3.719 0-7.335.443-10.81 1.256v-154.381c0-20.333 16.582-36.875 36.964-36.875h190.303c2.144 0 4.273.274 6.334.798v107.672c0 20.714 16.85 37.566 37.56 37.566h107.694c.505 2.025.765 4.125.765 6.265v38.954c-3.475-.812-7.091-1.255-10.81-1.255h-35.314c-4.142 0-7.5 3.357-7.5 7.5s3.358 7.5 7.5 7.5h35.314c17.92 0 32.5 14.579 32.5 32.5v146c0 17.921-14.58 32.5-32.5 32.5h-358c-17.92 0-32.5-14.579-32.5-32.5v-99.011c0-4.143-3.358-7.5-7.5-7.5s-7.5 3.357-7.5 7.5v99.011c0 16.679 8.649 31.368 21.69 39.845v21.78c0 28.604 23.311 51.875 51.964 51.875h160.095c4.142 0 7.5-3.357 7.5-7.5s-3.358-7.5-7.5-7.5h-160.095c-20.382 0-36.964-16.542-36.964-36.875v-15.381c3.475.813 7.091 1.256 10.81 1.256h358c3.719 0 7.335-.443 10.81-1.256v15.381c0 20.333-16.582 36.875-36.964 36.875h-109.872c-4.142 0-7.5 3.357-7.5 7.5s3.358 7.5 7.5 7.5h109.872c28.653 0 51.964-23.271 51.964-51.875v-21.78c13.041-8.477 21.69-23.166 21.69-39.845v-146c0-16.679-8.649-31.368-21.69-39.845z"/><path d="m208.707 388.627c3.347 2.37 8.051 1.598 10.451-1.812l36.869-52.335 36.814 52.331c2.398 3.411 7.101 4.186 10.45 1.818 3.388-2.383 4.202-7.062 1.819-10.449l-39.906-56.726 34.26-48.631c2.385-3.386 1.574-8.065-1.812-10.45-3.387-2.387-8.065-1.574-10.451 1.812l-31.165 44.238-31.118-44.234c-2.383-3.387-7.061-4.202-10.45-1.818-3.388 2.383-4.202 7.062-1.819 10.449l34.21 48.629-39.964 56.728c-2.386 3.386-1.575 8.065 1.812 10.45z"/><path d="m360.323 389.996c4.142 0 7.5-3.357 7.5-7.5v-106.492h24.104c4.142 0 7.5-3.357 7.5-7.5s-3.358-7.5-7.5-7.5h-62.953c-4.142 0-7.5 3.357-7.5 7.5s3.358 7.5 7.5 7.5h23.849v106.492c0 4.143 3.358 7.5 7.5 7.5z"/><path d="m151.422 389.996c4.142 0 7.5-3.357 7.5-7.5v-106.492h24.104c4.142 0 7.5-3.357 7.5-7.5s-3.358-7.5-7.5-7.5h-62.953c-4.142 0-7.5 3.357-7.5 7.5s3.358 7.5 7.5 7.5h23.85v106.492c-.001 4.143 3.357 7.5 7.499 7.5z"/></g></g></svg>