<svg id="Capa_1" enable-background="new 0 0 497 497" height="512" viewBox="0 0 497 497" width="512" xmlns="http://www.w3.org/2000/svg"><g><path d="m410.223 112h-185.223c-2.76 0-5-2.24-5-5v-20c0-13.81-11.19-25-25-25h-170c-13.81 0-25 11.19-25 25v365c0 13.81 11.19 25 25 25l397-20c13.807 0 25-11.193 25-25v-282.755c0-13.81-22.967-37.245-36.777-37.245z" fill="#f3d332"/><path d="m447 178v254c0 13.81-11.19 25-25 25l-397 20c-12.1 0-22.18-8.59-24.5-20h14.5c1.81 0 2.99-.92 3.54-1.46.54-.55 1.46-1.73 1.46-3.54v-229c0-24.81 20.19-45 45-45z" fill="#dbb72b"/><g fill="#f9f8f9"><path d="m130 188h317v30h-317z"/><path d="m444.68 133.42h-87.48c-12.86 0-23.28-10.45-23.28-23.35v-87.74c2.79 1.27 5.36 3.05 7.57 5.26l97.97 98.26c2.21 2.22 3.96 4.78 5.22 7.57z"/><path d="m130 218v-163.536c0-19.034 15.417-34.464 34.435-34.464h158.769c6.859 0 13.436 2.731 18.281 7.59l97.97 98.264c4.831 4.846 7.545 11.412 7.545 18.258v73.888z"/></g><path d="m194.43 20c-19.01 0-34.43 15.43-34.43 34.46v163.54h-30v-163.54c0-19.03 15.42-34.46 34.43-34.46z" fill="#e3e0e4"/><path d="m447 144.11v9.31h-89.8c-23.87 0-43.28-19.45-43.28-43.35v-90.07h9.28c6.86 0 13.44 2.73 18.29 7.59l97.97 98.26c4.83 4.85 7.54 11.42 7.54 18.26z" fill="#f9f8f9"/><path d="m447 144.11v9.31h-89.8c-23.87 0-43.28-19.45-43.28-43.35v-90.07h9.28c6.86 0 13.44 2.73 18.29 7.59l97.97 98.26c4.83 4.85 7.54 11.42 7.54 18.26z" fill="#e3e0e4"/><path d="m444.68 133.42h-87.48c-12.86 0-23.28-10.45-23.28-23.35v-87.74c2.79 1.27 5.36 3.05 7.57 5.26l97.97 98.26c2.21 2.22 3.96 4.78 5.22 7.57z" fill="#b9a1d3"/><path d="m130 178h317v40h-317z" fill="#e3e0e4"/><path d="m497 233v219c0 13.81-11.19 25-25 25h-447c6.9 0 13.16-2.8 17.68-7.32s7.32-10.78 7.32-17.68v-219c0-13.81 11.19-25 25-25h397c13.81 0 25 11.19 25 25z" fill="#faf063"/></g></svg>