<svg id="Capa_1" enable-background="new 0 0 512 512" height="512" viewBox="0 0 512 512" width="512" xmlns="http://www.w3.org/2000/svg"><g><g><path d="m453.31 460.125c0 24.508-19.907 44.375-44.464 44.375h-305.692c-24.557 0-44.464-19.867-44.464-44.375v-408.25c0-24.508 19.907-44.375 44.464-44.375h190.303c8.857 0 17.35 3.516 23.606 9.773l126.505 126.521c6.239 6.239 9.742 14.694 9.742 23.508z" fill="#f9f8f9"/><path d="m133.15 504.5h-30c-24.55 0-44.46-19.87-44.46-44.38v-408.24c0-24.51 19.91-44.38 44.46-44.38h30c-24.55 0-44.46 19.87-44.46 44.38v408.24c0 24.51 19.91 44.38 44.46 44.38z" fill="#e3e0e4"/><path d="m453.31 167.3v16.24h-115.96c-33.12 0-60.06-26.95-60.06-60.07v-115.97h16.17c8.85 0 17.35 3.52 23.6 9.77l126.51 126.52c6.24 6.24 9.74 14.7 9.74 23.51z" fill="#e3e0e4"/><path d="m450.32 153.54h-112.97c-16.6 0-30.06-13.46-30.06-30.07v-112.96c3.61 1.63 6.92 3.91 9.77 6.76l126.51 126.52c2.85 2.85 5.12 6.15 6.75 9.75z" fill="#faf063"/><path d="m435 438.5h-358c-22.091 0-40-17.909-40-40v-146c0-22.091 17.909-40 40-40h358c22.091 0 40 17.909 40 40v146c0 22.091-17.909 40-40 40z" fill="#faf063"/><path d="m102 438.5h-25c-22.09 0-40-17.91-40-40v-146c0-22.09 17.91-40 40-40h25c-22.09 0-40 17.91-40 40v146c0 22.09 17.91 40 40 40z" fill="#f3d332"/></g><g><path d="m460.81 212.656v-45.354c0-10.88-4.24-21.111-11.938-28.811l-126.505-126.52c-7.719-7.72-17.985-11.971-28.91-11.971h-126.308c-4.142 0-7.5 3.357-7.5 7.5s3.358 7.5 7.5 7.5h126.308c2.144 0 4.273.274 6.334.798v107.673c0 20.714 16.85 37.566 37.56 37.566h20.128c4.142 0 7.5-3.357 7.5-7.5s-3.358-7.5-7.5-7.5h-20.128c-12.439 0-22.56-10.123-22.56-22.566v-97.862l120.413 120.428h-42.725c-4.142 0-7.5 3.357-7.5 7.5s3.358 7.5 7.5 7.5h52.566c.505 2.025.765 4.125.765 6.265v38.954c-3.475-.813-7.091-1.256-10.81-1.256h-358c-3.719 0-7.335.443-10.81 1.256v-154.381c0-20.333 16.582-36.875 36.964-36.875h28.995c4.142 0 7.5-3.357 7.5-7.5s-3.358-7.5-7.5-7.5h-28.995c-28.653 0-51.964 23.271-51.964 51.875v160.781c-13.041 8.476-21.69 23.165-21.69 39.844 0 4.143 3.358 7.5 7.5 7.5s7.5-3.357 7.5-7.5c0-17.921 14.58-32.5 32.5-32.5h358c17.92 0 32.5 14.579 32.5 32.5v146c0 17.921-14.58 32.5-32.5 32.5h-358c-17.92 0-32.5-14.579-32.5-32.5v-110.997c0-4.143-3.358-7.5-7.5-7.5s-7.5 3.357-7.5 7.5v110.997c0 16.679 8.649 31.368 21.69 39.844v21.781c0 28.604 23.311 51.875 51.964 51.875h259.421c4.142 0 7.5-3.357 7.5-7.5s-3.358-7.5-7.5-7.5h-259.421c-20.382 0-36.964-16.542-36.964-36.875v-15.381c3.475.813 7.091 1.256 10.81 1.256h358c3.719 0 7.335-.443 10.81-1.256v15.381c0 20.333-16.582 36.875-36.964 36.875h-10.91c-4.142 0-7.5 3.357-7.5 7.5s3.358 7.5 7.5 7.5h10.91c28.653 0 51.964-23.271 51.964-51.875v-21.781c13.041-8.477 21.69-23.165 21.69-39.844v-146c0-16.679-8.649-31.368-21.69-39.844z"/><path d="m269.813 388.044v-125.088c0-4.143-3.358-7.5-7.5-7.5s-7.5 3.357-7.5 7.5v125.088c0 4.143 3.358 7.5 7.5 7.5s7.5-3.357 7.5-7.5z"/><path d="m132.272 391.617c1.311 2.42 3.842 3.927 6.594 3.927h83.447c4.142 0 7.5-3.357 7.5-7.5s-3.358-7.5-7.5-7.5h-69.608l73.949-113.493c3.305-4.735-.513-11.778-6.284-11.595h-78.938c-4.142 0-7.5 3.357-7.5 7.5s3.358 7.5 7.5 7.5h65.1l-73.949 113.493c-1.503 2.306-1.622 5.249-.311 7.668z"/><path d="m309.813 388.044v-46.875c8.133-.046 21.041-.113 27.33-.113 23.981 0 43.491-19.2 43.491-42.8s-19.51-42.8-43.491-42.8h-34.83c-4.032-.08-7.569 3.477-7.5 7.5v125.088c0 4.143 3.358 7.5 7.5 7.5s7.5-3.357 7.5-7.5zm27.33-117.588c15.444 0 28.491 12.73 28.491 27.8s-13.047 27.8-28.491 27.8c-6.247 0-18.966.065-27.13.112-.046-8.361-.113-21.542-.113-27.912 0-5.352-.038-19.118-.064-27.8z"/></g></g></svg>