<svg id="Capa_1" enable-background="new 0 0 497 497" height="512" viewBox="0 0 497 497" width="512" xmlns="http://www.w3.org/2000/svg"><g><path d="m445.81 452.625c0 24.508-19.907 44.375-44.464 44.375h-305.692c-24.557 0-44.464-19.867-44.464-44.375v-408.25c0-24.508 19.907-44.375 44.464-44.375h190.303c8.857 0 17.35 3.516 23.606 9.773l126.505 126.521c6.239 6.239 9.742 14.694 9.742 23.508z" fill="#f9f8f9"/><path d="m125.65 497h-30c-24.55 0-44.46-19.87-44.46-44.38v-408.24c0-24.51 19.91-44.38 44.46-44.38h30c-24.55 0-44.46 19.87-44.46 44.38v408.24c0 24.51 19.91 44.38 44.46 44.38z" fill="#e3e0e4"/><path d="m445.81 159.8v16.24h-115.96c-33.12 0-60.06-26.95-60.06-60.07v-115.97h16.17c8.85 0 17.35 3.52 23.6 9.77l126.51 126.52c6.24 6.24 9.74 14.7 9.74 23.51z" fill="#e3e0e4"/><path d="m442.82 146.04h-112.97c-16.6 0-30.06-13.46-30.06-30.07v-112.96c3.61 1.63 6.92 3.91 9.77 6.76l126.51 126.52c2.85 2.85 5.12 6.15 6.75 9.75z" fill="#9ec8fc"/><path d="m427.5 431h-358c-22.091 0-40-17.909-40-40v-146c0-22.091 17.909-40 40-40h358c22.091 0 40 17.909 40 40v146c0 22.091-17.909 40-40 40z" fill="#9ec8fc"/><path d="m94.5 431h-25c-22.09 0-40-17.91-40-40v-146c0-22.09 17.91-40 40-40h25c-22.09 0-40 17.91-40 40v146c0 22.09 17.91 40 40 40z" fill="#62a4fb"/><g fill="#f9f8f9"><path d="m77.274 380.811c-1.979 0-3.879-.782-5.283-2.177-1.412-1.402-2.21-3.307-2.217-5.296-.001-.401-.144-40.258-.144-55.46 0-12.615-.08-55.174-.08-55.175-.004-1.991.785-3.902 2.191-5.312 1.407-1.41 3.317-2.202 5.309-2.202h31.33c31.206 0 52.172 25.241 52.172 62.811 0 16.71-4.744 32.104-13.359 43.349-9.293 12.129-22.705 18.954-37.766 19.218-8.883.154-31.18.24-32.125.244-.008 0-.018 0-.028 0zm7.29-110.622c.022 12.809.066 38.386.066 47.688 0 11.132.076 35.527.118 47.897 7.545-.039 18.836-.11 24.418-.207 21.423-.375 36.386-19.936 36.386-47.568 0-23.113-9.765-47.811-37.172-47.811h-23.816z"/><path d="m384.042 382.496c-35.563 0-64.496-28.933-64.496-64.496s28.933-64.496 64.496-64.496c12.924 0 25.396 3.811 36.065 11.019 3.433 2.319 4.335 6.981 2.017 10.413-2.318 3.434-6.98 4.334-10.413 2.017-8.181-5.527-17.749-8.448-27.669-8.448-27.292 0-49.496 22.204-49.496 49.496s22.204 49.496 49.496 49.496c10.431 0 19.276-3.168 26.293-9.417 1.365-1.216 2.666-2.559 3.866-3.99 2.661-3.176 7.393-3.592 10.565-.931 3.175 2.661 3.592 7.392.931 10.565-1.667 1.989-3.479 3.858-5.386 5.557-9.707 8.645-22.249 13.215-36.269 13.215z"/><path d="m240.049 382.496c-35.563 0-64.496-28.933-64.496-64.496s28.933-64.496 64.496-64.496 64.497 28.933 64.497 64.496-28.934 64.496-64.497 64.496zm0-113.992c-27.292 0-49.496 22.204-49.496 49.496s22.204 49.496 49.496 49.496c27.293 0 49.497-22.204 49.497-49.496s-22.204-49.496-49.497-49.496z"/></g></g></svg>