<svg id="Capa_1" enable-background="new 0 0 512 512" height="512" viewBox="0 0 512 512" width="512" xmlns="http://www.w3.org/2000/svg"><g><path d="m459.265 466.286c0 25.248-20.508 45.714-45.806 45.714h-314.918c-25.298 0-45.806-20.467-45.806-45.714v-420.572c0-25.247 20.508-45.714 45.806-45.714h196.047c9.124 0 17.874 3.622 24.318 10.068l130.323 130.34c6.427 6.427 10.036 15.137 10.036 24.217z" fill="#f9f8f9"/><path d="m129.442 512h-30.905c-25.291 0-45.802-20.47-45.802-45.719v-420.562c0-25.249 20.511-45.719 45.802-45.719h30.905c-25.291 0-45.802 20.47-45.802 45.719v420.561c0 25.25 20.511 45.72 45.802 45.72z" fill="#e3e0e4"/><path d="m459.265 164.623v16.73h-119.46c-34.12 0-61.873-27.763-61.873-61.883v-119.47h16.658c9.117 0 17.874 3.626 24.312 10.065l130.328 130.339c6.429 6.428 10.035 15.143 10.035 24.219z" fill="#e3e0e4"/><path d="m456.185 150.448h-116.38c-17.101 0-30.967-13.866-30.967-30.978v-116.369c3.719 1.679 7.129 4.028 10.065 6.964l130.328 130.339c2.936 2.935 5.275 6.335 6.954 10.044z" fill="#9ec8fc"/><path d="m440.402 444.008h-368.804c-22.758 0-41.207-18.45-41.207-41.207v-150.407c0-22.758 18.45-41.207 41.207-41.207h368.805c22.758 0 41.207 18.45 41.207 41.207v150.406c0 22.759-18.45 41.208-41.208 41.208z" fill="#9ec8fc"/><path d="m97.352 444.008h-25.754c-22.757 0-41.207-18.451-41.207-41.207v-150.407c0-22.757 18.451-41.207 41.207-41.207h25.755c-22.757 0-41.207 18.451-41.207 41.207v150.406c-.001 22.757 18.449 41.208 41.206 41.208z" fill="#62a4fb"/><g fill="#f9f8f9"><path d="m157.833 261.155c-4.268 0-7.726 3.458-7.726 7.726v93.857c0 5.929-3.106 11.335-8.104 14.109-9.845 5.467-19.611-3.888-20.085-4.353-3.011-2.999-7.88-3.003-10.897-.006-3.027 3.008-3.042 7.9-.035 10.926.561.566 10.822 10.684 24.53 10.684 4.378 0 9.112-1.033 13.989-3.742 9.904-5.498 16.057-16.081 16.057-27.621v-93.857c-.003-4.265-3.461-7.723-7.729-7.723z"/><path d="m395.535 319.871h-35.13c-4.268 0-7.726 3.458-7.726 7.726s3.458 7.726 7.726 7.726h26.997c-2.264 21.412-14.272 43.263-42.555 43.263-28.117 0-50.991-22.874-50.991-50.99s22.874-50.99 50.991-50.99c10.219 0 20.076 3.009 28.504 8.703 3.537 2.387 8.339 1.46 10.727-2.078 2.388-3.536 1.459-8.338-2.078-10.727-10.992-7.426-23.84-11.352-37.153-11.352-36.636 0-66.444 29.806-66.444 66.443s29.807 66.443 66.444 66.443c17.819 0 32.862-6.935 43.505-20.057 9.614-11.853 14.909-28.327 14.909-46.386 0-4.265-3.458-7.724-7.726-7.724z"/><path d="m221.506 260.877h-33.178c-6.79 0-7.147 2.957-7.147 7.144v119.157c0 3.947 3.199 7.144 7.144 7.144 3.946 0 7.144-3.198 7.144-7.144v-44.652c7.747-.044 20.043-.108 26.034-.108 22.844 0 41.429-18.29 41.429-40.771 0-22.48-18.582-40.77-41.426-40.77zm0 67.253c-5.951 0-18.067.062-25.844.107-.044-7.965-.108-20.521-.108-26.588 0-5.098-.036-18.211-.061-26.482h26.012c14.712 0 27.14 12.126 27.14 26.482.001 14.354-12.428 26.481-27.139 26.481z"/></g></g></svg>