<svg id="Capa_1" enable-background="new 0 0 497 497" height="512" viewBox="0 0 497 497" width="512" xmlns="http://www.w3.org/2000/svg"><g><path d="m445.81 159.802v292.823c0 24.508-19.907 44.375-44.464 44.375h-305.692c-24.557 0-44.464-19.867-44.464-44.375v-408.25c0-24.508 19.907-44.375 44.464-44.375h190.303c5.358 0 10.583 1.287 15.26 3.689 3.054 1.568 139.975 138.761 141.61 142.355 1.948 4.281 2.983 8.966 2.983 13.758z" fill="#f9f8f9"/><path d="m445.81 159.8v16.24h-115.96c-33.12 0-60.06-26.95-60.06-60.07v-115.97h16.17c4.425 0 8.763.88 12.775 2.541s142.605 140.12 144.249 143.848c1.847 4.188 2.826 8.751 2.826 13.411z" fill="#e3e0e4"/><path d="m125.65 497h-30c-24.55 0-44.46-19.87-44.46-44.38v-408.24c0-24.51 19.91-44.38 44.46-44.38h30c-24.55 0-44.46 19.87-44.46 44.38v408.24c0 24.51 19.91 44.38 44.46 44.38z" fill="#e3e0e4"/><path d="m442.82 146.04h-112.97c-16.6 0-30.06-13.46-30.06-30.07v-112.96c3.61 1.63 6.92 3.91 9.77 6.76l126.51 126.52c2.85 2.85 5.12 6.15 6.75 9.75z" fill="#a29aa5"/><path d="m355.5 446.146h-214c-22.091 0-40-17.909-40-40v-154.292c0-22.091 17.909-40 40-40h214c22.091 0 40 17.909 40 40v154.293c0 22.091-17.909 39.999-40 39.999z" fill="#9ec8fc"/><path d="m126.5 406.15c0 22.09 17.91 40 40 40h-25c-22.09 0-40-17.91-40-40v-154.3c0-22.09 17.91-40 40-40h25c-22.09 0-40 17.91-40 40z" fill="#62a4fb"/><path d="m369.25 443.72c.91-.33 1.8-.7 2.68-1.09-.88.4-1.77.76-2.68 1.09z" fill="#9ec8fc"/><path d="m395.32 409.93c-1.9 20.32-19 36.22-39.82 36.22h-214c-22.09 0-40-17.91-40-40v-.94l60.65-68.73c6.38-4.77 15.17-4.63 21.4.32l27.11 21.54c8.35 6.64 20.44 5.56 27.48-2.47l49.99-57c7.36-8.4 20.6-7.86 27.26 1.11z" fill="#b9a1d3"/><path d="m166.5 446.15h-25c-22.09 0-40-17.91-40-40v-.94l25-28.33v29.27c0 22.09 17.91 40 40 40z" fill="#9573bb"/><path d="m369.25 443.72c.91-.33 1.8-.7 2.68-1.09-.88.4-1.77.76-2.68 1.09z" fill="#b9a1d3"/><circle cx="212.087" cy="278.495" fill="#faf063" r="21.578"/></g></svg>