<?xml version="1.0" encoding="iso-8859-1"?>
<!-- Generator: Adobe Illustrator 19.0.0, SVG Export Plug-In . SVG Version: 6.00 Build 0)  -->
<svg version="1.1" id="Capa_1" xmlns="http://www.w3.org/2000/svg" xmlns:xlink="http://www.w3.org/1999/xlink" x="0px" y="0px"
	 viewBox="0 0 512 512" style="enable-background:new 0 0 512 512;" xml:space="preserve">
<g>
	<g>
		<polygon points="86.357,91.076 86.357,23.792 56.357,23.792 56.357,91.076 0,91.076 0,208.362 56.357,208.362 56.357,488.208 
			86.357,488.208 86.357,208.362 142.715,208.362 142.715,91.076 		"/>
	</g>
</g>
<g>
	<g>
		<polygon points="271,230.931 271,23.792 241,23.792 241,230.931 184.643,230.931 184.643,348.217 241,348.217 241,488.208 
			271,488.208 271,348.217 327.357,348.217 327.357,230.931 		"/>
	</g>
</g>
<g>
	<g>
		<polygon points="455.643,91.076 455.643,23.792 425.643,23.792 425.643,91.076 369.285,91.076 369.285,208.362 425.643,208.362 
			425.643,488.208 455.643,488.208 455.643,208.362 512,208.362 512,91.076 		"/>
	</g>
</g>
<g>
</g>
<g>
</g>
<g>
</g>
<g>
</g>
<g>
</g>
<g>
</g>
<g>
</g>
<g>
</g>
<g>
</g>
<g>
</g>
<g>
</g>
<g>
</g>
<g>
</g>
<g>
</g>
<g>
</g>
</svg>
