        <svg version="1.1" style="fill:#00000029;" xmlns="http://www.w3.org/2000/svg" xmlns:xlink="http://www.w3.org/1999/xlink" x="0px" y="0px"
	       viewBox="0 0 512 512"  xml:space="preserve">
         <g>
	          <g>
		            <g>
			               <polygon points="336,455.44 336,272 384,272 384,240 336,240 336,56.56 372.848,32 448,32 448,0 363.152,0 320,28.768 276.848,0
				                 192,0 192,32 267.152,32 304,56.56 304,240 256,240 256,272 304,272 304,455.44 267.152,480 192,480 192,512 276.848,512
				                     320,483.232 363.152,512 448,512 448,480 372.848,480 			"/>
			                          <rect x="240" y="128" width="32" height="32"/>
			                             <rect x="368" y="128" width="32" height="32"/>
			                                <polygon points="432,128 432,160 480,160 480,352 432,352 432,384 512,384 512,128 			"/>
			                                   <polygon points="208,352 32,352 32,160 208,160 208,128 0,128 0,384 208,384 			"/>
			                                      <rect x="240" y="352" width="32" height="32"/>
			                                         <rect x="368" y="352" width="32" height="32"/>
		           </g>
	            </g>
            </g>
          </svg>