<?xml version="1.0" encoding="iso-8859-1"?>
<!-- Generator: Adobe Illustrator 19.0.0, SVG Export Plug-In . SVG Version: 6.00 Build 0)  -->
<svg version="1.1" id="Capa_1" xmlns="http://www.w3.org/2000/svg" xmlns:xlink="http://www.w3.org/1999/xlink" x="0px" y="0px"
	 viewBox="0 0 512 512" style="enable-background:new 0 0 512 512;" xml:space="preserve">
<path d="M351.68,53.653c69.653,33.067,119.68,100.8,127.253,181.013h32C500.053,103.253,390.187,0,256,0
	c-4.8,0-9.387,0.427-14.187,0.747L323.2,82.133C323.2,82.133,351.68,53.653,351.68,53.653z M218.24,37.227
	c-12.48-12.48-32.747-12.48-45.227,0L37.227,173.013c-12.48,12.48-12.48,32.747,0,45.227l256.427,256.427
	c12.48,12.48,32.747,12.48,45.227,0L474.667,338.88c12.48-12.48,12.48-32.747,0-45.227L218.24,37.227z M316.373,452.053
	L59.84,195.627L195.627,59.84l256.427,256.427L316.373,452.053z M160.32,458.347C90.667,425.28,40.64,357.547,33.067,277.333h-32
	C11.947,408.747,121.813,512,256,512c4.8,0,9.387-0.427,14.187-0.747L188.8,429.867L160.32,458.347L160.32,458.347z"/>
<g>
</g>
<g>
</g>
<g>
</g>
<g>
</g>
<g>
</g>
<g>
</g>
<g>
</g>
<g>
</g>
<g>
</g>
<g>
</g>
<g>
</g>
<g>
</g>
<g>
</g>
<g>
</g>
<g>
</g>
</svg>
