<?xml version="1.0" encoding="iso-8859-1"?>
<!-- Generator: Adobe Illustrator 19.0.0, SVG Export Plug-In . SVG Version: 6.00 Build 0)  -->
<svg version="1.1" id="Capa_1" xmlns="http://www.w3.org/2000/svg" xmlns:xlink="http://www.w3.org/1999/xlink" x="0px" y="0px"
	 viewBox="0 0 491.037 491.037" style="enable-background:new 0 0 491.037 491.037;" xml:space="preserve">
<path style="fill:#FFC107;" d="M487.806,238.271c0,0-26.133-26.709-60.949-62.144V75.028c0-5.891-4.776-10.667-10.667-10.667
	h-99.883C249.683-2.305,249.555-2.241,241.492,1.13c-1.497,0.623-2.832,1.579-3.904,2.795l-60.48,60.437H74.857
	c-5.891,0-10.667,4.776-10.667,10.667v102.293L3.305,238.186c-4.164,4.165-4.164,10.917,0,15.083l60.885,60.885v102.208
	c0,5.891,4.776,10.667,10.667,10.667h102.251l60.885,60.885c4.165,4.164,10.917,4.164,15.083,0l60.864-60.885H416.19
	c5.891,0,10.667-4.776,10.667-10.667V314.154l60.885-60.885C491.867,249.131,491.896,242.444,487.806,238.271z"/>
<circle style="fill:#FAFAFA;" cx="245.523" cy="245.695" r="138.667"/>
<path style="fill:#FFC107;" d="M245.523,149.695c-53.019,0-96,42.981-96,96s42.981,96,96,96c5.891,0,10.667-4.776,10.667-10.667
	V160.362C256.19,154.471,251.415,149.695,245.523,149.695z"/>
<g>
</g>
<g>
</g>
<g>
</g>
<g>
</g>
<g>
</g>
<g>
</g>
<g>
</g>
<g>
</g>
<g>
</g>
<g>
</g>
<g>
</g>
<g>
</g>
<g>
</g>
<g>
</g>
<g>
</g>
</svg>
